<?xml version="1.0" standalone="no"?><!DOCTYPE svg PUBLIC "-//W3C//DTD SVG 1.1//EN" "http://www.w3.org/Graphics/SVG/1.1/DTD/svg11.dtd"><svg t="1537261210001" class="icon" style="" viewBox="0 0 1024 1024" version="1.1" xmlns="http://www.w3.org/2000/svg" p-id="1060" xmlns:xlink="http://www.w3.org/1999/xlink" width="200" height="200"><defs><style type="text/css"></style></defs><path d="M891.84 410.072c-8.936-33.48-22.192-65.232-39.192-94.584l74.512-112.4-106.272-106.184-112.344 74.456c-29.384-16.944-61.144-30.256-94.648-39.2L587.08 0l-150.16 0-26.816 132.16c-33.504 8.944-65.264 22.256-94.648 39.2l-112.4-74.456L96.832 203.08l74.52 112.4c-17 29.352-30.256 61.112-39.2 94.648L0 436.888l0 150.192 132.16 26.824c8.944 33.504 22.192 65.264 39.2 94.648l-74.52 112.408 106.216 106.152 112.4-74.456c29.384 16.936 61.144 30.256 94.648 39.192L436.92 1024l150.16 0 26.824-132.16c33.504-8.936 65.264-22.256 94.648-39.192l112.344 74.456 106.272-106.152-74.512-112.408c17-29.384 30.256-61.144 39.192-94.648L1024 587.08 1024 436.888 891.84 410.072 891.84 410.072zM689.8 512c0 98.152-79.584 177.8-177.8 177.8S334.208 610.152 334.208 512c0-98.176 79.584-177.792 177.792-177.792S689.8 413.824 689.8 512z" p-id="1061"></path></svg>