<?xml version="1.0" standalone="no"?><!DOCTYPE svg PUBLIC "-//W3C//DTD SVG 1.1//EN" "http://www.w3.org/Graphics/SVG/1.1/DTD/svg11.dtd"><svg t="1537261293466" class="icon" style="" viewBox="0 0 1024 1024" version="1.1" xmlns="http://www.w3.org/2000/svg" p-id="1736" xmlns:xlink="http://www.w3.org/1999/xlink" width="200" height="200"><defs><style type="text/css"></style></defs><path d="M950.857143 1024 804.571429 1024C764.123429 1024 731.428571 991.305143 731.428571 950.857143L731.428571 73.142857C731.428571 32.694857 764.123429 0 804.571429 0L950.857143 0C991.305143 0 1024 32.694857 1024 73.142857L1024 950.857143C1024 991.305143 991.305143 1024 950.857143 1024ZM950.857143 146.285714 804.571429 146.285714 804.571429 292.571429 950.857143 292.571429 950.857143 146.285714ZM585.142857 1024 438.857143 1024C398.409143 1024 365.714286 991.305143 365.714286 950.857143L365.714286 73.142857C365.714286 32.694857 398.409143 0 438.857143 0L585.142857 0C625.590857 0 658.285714 32.694857 658.285714 73.142857L658.285714 950.857143C658.285714 991.305143 625.590857 1024 585.142857 1024ZM585.142857 146.285714 438.857143 146.285714 438.857143 292.571429 585.142857 292.571429 585.142857 146.285714ZM219.428571 1024 73.142857 1024C32.694857 1024 0 991.305143 0 950.857143L0 73.142857C0 32.694857 32.694857 0 73.142857 0L219.428571 0C259.876571 0 292.571429 32.694857 292.571429 73.142857L292.571429 950.857143C292.571429 991.305143 259.876571 1024 219.428571 1024ZM219.428571 146.285714 73.142857 146.285714 73.142857 292.571429 219.428571 292.571429 219.428571 146.285714Z" p-id="1737"></path></svg>