<?xml version="1.0" standalone="no"?><!DOCTYPE svg PUBLIC "-//W3C//DTD SVG 1.1//EN" "http://www.w3.org/Graphics/SVG/1.1/DTD/svg11.dtd"><svg t="1537418042571" class="icon" style="" viewBox="0 0 1024 1024" version="1.1" xmlns="http://www.w3.org/2000/svg" p-id="2323" xmlns:xlink="http://www.w3.org/1999/xlink" width="200" height="200"><defs><style type="text/css"></style></defs><path d="M421.205333 107.52h238.933334a50.858667 50.858667 0 0 0 46.08-53.589333A50.858667 50.858667 0 0 0 657.749333 0h-236.544A50.858667 50.858667 0 0 0 375.466667 53.589333a50.858667 50.858667 0 0 0 47.445333 53.589334z" p-id="2324"></path><path d="M853.333333 53.589333h-79.872a118.442667 118.442667 0 0 1-114.346666 121.856h-238.933334A119.125333 119.125333 0 0 1 307.2 53.589333H225.962667a102.4 102.4 0 0 0-102.4 102.4V921.6a102.4 102.4 0 0 0 102.4 102.4H853.333333a102.4 102.4 0 0 0 102.4-102.4V156.330667a102.4 102.4 0 0 0-102.4-102.741334z m-280.234666 648.533334H304.469333a34.133333 34.133333 0 0 1 0-68.266667h268.288a34.133333 34.133333 0 0 1 0.341334 69.973333z m201.386666-247.808H304.469333a34.133333 34.133333 0 0 1 0-68.266667h470.016a34.133333 34.133333 0 0 1 0 69.973333z" p-id="2325"></path></svg>