<?xml version="1.0" standalone="no"?><!DOCTYPE svg PUBLIC "-//W3C//DTD SVG 1.1//EN" "http://www.w3.org/Graphics/SVG/1.1/DTD/svg11.dtd"><svg t="1537261472648" class="icon" style="" viewBox="0 0 1024 1024" version="1.1" xmlns="http://www.w3.org/2000/svg" p-id="3201" xmlns:xlink="http://www.w3.org/1999/xlink" width="200" height="200"><defs><style type="text/css"></style></defs><path d="M515.211 609.146c97.78 0 172.547-74.77 172.547-172.547v-230.062c0-97.78-74.77-172.547-172.547-172.547s-172.547 74.77-172.547 172.547v230.062c0 92.027 74.77 172.547 172.547 172.547zM860.31 264.051c-34.509 0-57.513 23.006-57.513 57.513v172.547c0 126.534-103.53 230.062-230.062 230.062h-115.034c-126.534 0-230.062-103.53-230.062-230.062v-172.547c0-34.509-23.006-57.513-57.513-57.513s-57.513 23.006-57.513 57.513v172.547c0 189.805 155.294 345.098 345.098 345.098v115.034c0 34.509 23.006 57.513 57.513 57.513s57.513-23.006 57.513-57.513v-115.034c189.805 0 345.098-155.294 345.098-345.098v-172.547c0-34.509-23.006-57.513-57.513-57.513z" p-id="3202"></path></svg>