<?xml version="1.0" standalone="no"?><!DOCTYPE svg PUBLIC "-//W3C//DTD SVG 1.1//EN" "http://www.w3.org/Graphics/SVG/1.1/DTD/svg11.dtd"><svg t="1537261520231" class="icon" style="" viewBox="0 0 1024 1024" version="1.1" xmlns="http://www.w3.org/2000/svg" p-id="3870" xmlns:xlink="http://www.w3.org/1999/xlink" width="200" height="200"><defs><style type="text/css"></style></defs><path d="M222.506667 977.514667A35.648 35.648 0 0 1 187.242667 1013.333333H35.626667a35.648 35.648 0 0 1-35.285334-35.818666v-750.933334A35.669333 35.669333 0 0 1 35.626667 190.784h151.616a35.669333 35.669333 0 0 1 35.285333 35.818667v750.933333M184.512 268.565333a35.669333 35.669333 0 0 0-35.264-35.818666H74.005333a35.669333 35.669333 0 0 0-35.264 35.818666v4.16a35.669333 35.669333 0 0 0 35.285334 35.818667h75.221333a35.648 35.648 0 0 0 35.285333-35.818667v-4.16m107.306667-222.08A35.669333 35.669333 0 0 1 327.104 10.666667h149.888a35.669333 35.669333 0 0 1 35.349333 35.818666v930.986667a35.648 35.648 0 0 1-35.349333 35.861333h-149.888a35.648 35.648 0 0 1-35.285333-35.818666V46.485333m187.882666 38.592a35.669333 35.669333 0 0 0-35.285333-35.818666h-79.914667a35.669333 35.669333 0 0 0-35.285333 35.818666V91.733333a35.648 35.648 0 0 0 35.285333 35.712h79.936A35.648 35.648 0 0 0 479.722667 91.733333v-6.656M1021.781333 909.226667a36.8 36.8 0 0 1-23.594666 46.272l-150.4 48.874666a36.949333 36.949333 0 0 1-46.4-23.466666l-238.933334-731.370667a36.8 36.8 0 0 1 23.594667-46.272l150.421333-48.874667a36.906667 36.906667 0 0 1 46.378667 23.466667l238.933333 731.370667M758.442667 230.954667a36.970667 36.970667 0 0 0-46.4-23.466667l-74.666667 24.213333a36.8 36.8 0 0 0-23.594667 46.272l1.322667 3.989334a36.970667 36.970667 0 0 0 46.4 23.466666l74.666667-24.213333a36.8 36.8 0 0 0 23.637333-46.272l-1.322667-4.010667m-11.477333-34.88z" p-id="3871"></path></svg>